<svg width="15" height="15" viewBox="0 0 15 15" fill="none" xmlns="http://www.w3.org/2000/svg">
<path d="M10.5 15V12.75H8.25V11.25H10.5V9H12V11.25H14.25V12.75H12V15H10.5ZM1.5 13.5C1.0875 13.5 0.734375 13.3531 0.440625 13.0594C0.146875 12.7656 0 12.4125 0 12V3C0 2.5875 0.146875 2.23438 0.440625 1.94063C0.734375 1.64688 1.0875 1.5 1.5 1.5H2.25V0H3.75V1.5H8.25V0H9.75V1.5H10.5C10.9125 1.5 11.2656 1.64688 11.5594 1.94063C11.8531 2.23438 12 2.5875 12 3V7.575C11.75 7.5375 11.5 7.51875 11.25 7.51875C11 7.51875 10.75 7.5375 10.5 7.575V6H1.5V12H6.75C6.75 12.25 6.76875 12.5 6.80625 12.75C6.84375 13 6.9125 13.25 7.0125 13.5H1.5Z" fill="#132459"/>
</svg>
