<svg width="108" height="40" viewBox="0 0 108 40" fill="none" xmlns="http://www.w3.org/2000/svg">
<g clip-path="url(#clip0_7_1045)">
<path d="M31.5516 39.8745H0V18.9289C0 14.3495 2.21476 9.97769 5.92462 7.23354L15.7045 0L25.574 7.23065C29.3162 9.9748 31.55 14.3611 31.55 18.9637V39.8745H31.5516ZM1.9504 37.9465H29.6011V18.9652C29.6011 14.9709 27.6624 11.1639 24.4152 8.78129L15.7119 2.40586L7.0937 8.7784C3.87437 11.1581 1.95187 14.9549 1.95187 18.9303V37.9477L1.9504 37.9465Z" fill="#2F57CD"/>
<path d="M105.172 32.9169V25.3872H106.363V32.9169H105.172ZM103.912 28.0609V26.9183H107.772V28.0609H103.912Z" fill="#2F57CD"/>
<path d="M97.547 32.9169V26.9183H98.7375V28.1523L98.5296 28.2894C98.6065 28.0228 98.7568 27.7791 98.9803 27.5582C99.2037 27.3297 99.4695 27.1468 99.7777 27.0097C100.086 26.865 100.402 26.7926 100.725 26.7926C101.188 26.7926 101.573 26.884 101.881 27.0669C102.189 27.2421 102.421 27.5125 102.575 27.8781C102.729 28.2437 102.806 28.7046 102.806 29.2606V32.9169H101.616V29.3406C101.616 28.9979 101.569 28.716 101.477 28.4951C101.384 28.2666 101.242 28.1028 101.049 28.0038C100.856 27.8971 100.618 27.8515 100.333 27.8667C100.101 27.8667 99.8894 27.9048 99.6968 27.9809C99.5044 28.0495 99.3348 28.1485 99.1885 28.278C99.0497 28.4075 98.938 28.5598 98.8533 28.735C98.7761 28.9026 98.7375 29.0855 98.7375 29.2835V32.9169H98.148C98.0481 32.9169 97.9479 32.9169 97.8477 32.9169C97.7475 32.9169 97.6472 32.9169 97.547 32.9169Z" fill="#2F57CD"/>
<path d="M94.9678 32.9169V29.0093C94.9678 28.6741 94.8445 28.4037 94.598 28.198C94.359 27.9847 94.0546 27.8781 93.6849 27.8781C93.3459 27.8781 93.0375 27.9467 92.7602 28.0838C92.4906 28.2209 92.2438 28.4304 92.0207 28.7122L91.2463 27.9466C91.6083 27.5582 91.9973 27.2687 92.4135 27.0783C92.8374 26.8879 93.2918 26.7926 93.7773 26.7926C94.2395 26.7926 94.6404 26.8688 94.9793 27.0211C95.3183 27.1735 95.5803 27.3982 95.7652 27.6953C95.9501 27.9847 96.0425 28.339 96.0425 28.7579V32.9169H94.9678ZM93.1533 33.0311C92.7602 33.0311 92.4097 32.9551 92.1013 32.8028C91.7932 32.6505 91.5467 32.4409 91.3618 32.1742C91.1844 31.9 91.096 31.58 91.096 31.2145C91.096 30.8945 91.1536 30.6127 91.2693 30.369C91.3848 30.1252 91.5544 29.9234 91.7779 29.7634C92.0088 29.6034 92.2939 29.4815 92.6332 29.3978C92.9799 29.314 93.3767 29.2721 93.8234 29.2721H95.5109L95.407 30.209H93.6734C93.4421 30.209 93.2342 30.2318 93.049 30.2776C92.8719 30.3156 92.7178 30.3804 92.5868 30.4718C92.4636 30.5556 92.3711 30.6584 92.3095 30.7803C92.2479 30.8945 92.2171 31.0317 92.2171 31.1917C92.2171 31.3591 92.2594 31.5077 92.3441 31.6372C92.429 31.7591 92.5445 31.8545 92.6908 31.9228C92.8374 31.9914 93.0067 32.0258 93.1993 32.0258C93.4767 32.0258 93.7387 31.98 93.9852 31.8886C94.2395 31.7895 94.463 31.6563 94.6556 31.4886C94.8561 31.3212 95.0101 31.1345 95.1181 30.9289L95.3954 31.6945C95.2336 31.9609 95.0332 32.1932 94.7944 32.3914C94.5554 32.5895 94.2974 32.7455 94.0201 32.8597C93.7428 32.9742 93.4536 33.0311 93.1533 33.0311Z" fill="#2F57CD"/>
<path d="M87.7452 32.9169V25.3872H88.9357V32.9169H87.7452ZM86.4856 28.0609V26.9183H90.3459V28.0609H86.4856Z" fill="#2F57CD"/>
<path d="M83.4862 33.0311C82.9776 33.0311 82.5192 32.9437 82.1108 32.7683C81.7025 32.5932 81.3632 32.3342 81.0937 31.9914L81.9026 31.3059C82.1338 31.5726 82.3841 31.7668 82.6539 31.8886C82.9312 32.0028 83.2434 32.06 83.5901 32.06C83.7286 32.06 83.8559 32.0449 83.9714 32.0145C84.0947 31.9763 84.1989 31.9228 84.2836 31.8545C84.376 31.7858 84.4454 31.7059 84.4915 31.6145C84.5379 31.5154 84.5609 31.4086 84.5609 31.2945C84.5609 31.0963 84.4878 30.9363 84.3415 30.8145C84.2643 30.7613 84.141 30.7041 83.9714 30.6432C83.8096 30.5746 83.5979 30.5061 83.3359 30.4375C82.8889 30.3233 82.5229 30.1938 82.2378 30.049C81.9527 29.9043 81.7333 29.7405 81.5789 29.5577C81.4634 29.413 81.3788 29.2568 81.3246 29.0893C81.2708 28.9141 81.244 28.7236 81.244 28.518C81.244 28.1828 81.3402 27.8857 81.5329 27.6267C81.7255 27.3678 81.9835 27.1659 82.3072 27.0211C82.6384 26.8688 83.0084 26.7926 83.4168 26.7926C83.7019 26.7926 83.9829 26.8307 84.2606 26.9069C84.5456 26.9831 84.8074 27.0935 85.0464 27.2382C85.2852 27.383 85.4856 27.5544 85.6474 27.7524L84.9655 28.4951C84.8189 28.3504 84.6574 28.2247 84.48 28.118C84.3107 28.0038 84.1373 27.9162 83.9599 27.8553C83.7828 27.7943 83.621 27.7638 83.4744 27.7638C83.3128 27.7638 83.1662 27.7791 83.0352 27.8095C82.9045 27.84 82.7927 27.8857 82.7 27.9466C82.6153 28.0076 82.55 28.0838 82.5036 28.1752C82.4575 28.2666 82.4342 28.3694 82.4342 28.4837C82.442 28.5827 82.465 28.6779 82.5036 28.7693C82.55 28.8531 82.6116 28.9255 82.6885 28.9864C82.7734 29.0474 82.9004 29.1121 83.0701 29.1807C83.2394 29.2492 83.4554 29.314 83.7171 29.3749C84.1024 29.4739 84.4183 29.5844 84.6648 29.7063C84.9191 29.8205 85.1196 29.9538 85.2659 30.1062C85.4199 30.2509 85.5279 30.4185 85.5895 30.6089C85.6512 30.7994 85.682 31.0126 85.682 31.2486C85.682 31.5917 85.5818 31.9 85.3816 32.1742C85.189 32.4409 84.9269 32.6505 84.5958 32.8028C84.2643 32.9551 83.8945 33.0311 83.4862 33.0311Z" fill="#2F57CD"/>
<path d="M78.4432 32.9169V26.9183H79.6337V32.9169H78.4432ZM79.0211 25.5929C78.7669 25.5929 78.5705 25.5281 78.4317 25.3987C78.2928 25.2691 78.2238 25.0863 78.2238 24.8502C78.2238 24.6293 78.2928 24.4503 78.4317 24.3132C78.5779 24.1761 78.7746 24.1075 79.0211 24.1075C79.2754 24.1075 79.4718 24.1723 79.6106 24.3018C79.7491 24.4312 79.8185 24.6141 79.8185 24.8502C79.8185 25.0711 79.7454 25.2501 79.5991 25.3872C79.4603 25.5243 79.2677 25.5929 79.0211 25.5929Z" fill="#2F57CD"/>
<path d="M74.7388 33.0311C74.2302 33.0311 73.7718 32.9437 73.3634 32.7683C72.9551 32.5932 72.6162 32.3342 72.3463 31.9914L73.1555 31.3059C73.3865 31.5726 73.637 31.7668 73.9066 31.8886C74.1839 32.0028 74.496 32.06 74.8428 32.06C74.9816 32.06 75.1086 32.0449 75.2243 32.0145C75.3476 31.9763 75.4515 31.9228 75.5362 31.8545C75.6286 31.7858 75.698 31.7059 75.7444 31.6145C75.7905 31.5154 75.8135 31.4086 75.8135 31.2945C75.8135 31.0963 75.7404 30.9363 75.5941 30.8145C75.5169 30.7613 75.3937 30.7041 75.2243 30.6432C75.0625 30.5746 74.8505 30.5061 74.5885 30.4375C74.1415 30.3233 73.7755 30.1938 73.4904 30.049C73.2053 29.9043 72.9859 29.7405 72.8318 29.5577C72.7161 29.413 72.6314 29.2568 72.5776 29.0893C72.5234 28.9141 72.4966 28.7236 72.4966 28.518C72.4966 28.1828 72.5928 27.8857 72.7855 27.6267C72.9781 27.3678 73.2361 27.1659 73.5598 27.0211C73.8913 26.8688 74.2611 26.7926 74.6694 26.7926C74.9545 26.7926 75.2359 26.8307 75.5132 26.9069C75.7983 26.9831 76.0603 27.0935 76.2991 27.2382C76.5381 27.383 76.7382 27.5544 76.9001 27.7524L76.2181 28.4951C76.0718 28.3504 75.91 28.2247 75.7326 28.118C75.5633 28.0038 75.3899 27.9162 75.2125 27.8553C75.0354 27.7943 74.8736 27.7638 74.7273 27.7638C74.5654 27.7638 74.4192 27.7791 74.2881 27.8095C74.1571 27.84 74.0454 27.8857 73.9529 27.9466C73.868 28.0076 73.8026 28.0838 73.7562 28.1752C73.7102 28.2666 73.6871 28.3694 73.6871 28.4837C73.6946 28.5827 73.7179 28.6779 73.7562 28.7693C73.8026 28.8531 73.8642 28.9255 73.9414 28.9864C74.0261 29.0474 74.1531 29.1121 74.3227 29.1807C74.4923 29.2492 74.708 29.314 74.9701 29.3749C75.3551 29.4739 75.671 29.5844 75.9178 29.7063C76.1721 29.8205 76.3722 29.9538 76.5188 30.1062C76.6729 30.2509 76.7805 30.4185 76.8422 30.6089C76.9038 30.7994 76.9346 31.0126 76.9346 31.2486C76.9346 31.5917 76.8347 31.9 76.6343 32.1742C76.4416 32.4409 76.1795 32.6505 75.8484 32.8028C75.5169 32.9551 75.1472 33.0311 74.7388 33.0311Z" fill="#2F57CD"/>
<path d="M69.2084 33.0311C68.6998 33.0311 68.2414 32.9437 67.833 32.7683C67.4244 32.5932 67.0854 32.3342 66.8159 31.9914L67.6248 31.3059C67.856 31.5726 68.1063 31.7668 68.3761 31.8886C68.6534 32.0028 68.9656 32.06 69.3123 32.06C69.4508 32.06 69.5781 32.0449 69.6936 32.0145C69.8169 31.9763 69.9208 31.9228 70.0058 31.8545C70.0982 31.7858 70.1676 31.7059 70.2137 31.6145C70.2601 31.5154 70.2831 31.4086 70.2831 31.2945C70.2831 31.0963 70.2099 30.9363 70.0634 30.8145C69.9865 30.7613 69.8632 30.7041 69.6936 30.6432C69.5318 30.5746 69.3198 30.5061 69.0581 30.4375C68.6111 30.3233 68.2451 30.1938 67.96 30.049C67.6749 29.9043 67.4552 29.7405 67.3011 29.5577C67.1856 29.413 67.101 29.2568 67.0468 29.0893C66.993 28.9141 66.9659 28.7236 66.9659 28.518C66.9659 28.1828 67.0624 27.8857 67.255 27.6267C67.4477 27.3678 67.7057 27.1659 68.0294 27.0211C68.3606 26.8688 68.7306 26.7926 69.139 26.7926C69.4241 26.7926 69.7051 26.8307 69.9827 26.9069C70.2678 26.9831 70.5296 27.0935 70.7686 27.2382C71.0073 27.383 71.2078 27.5544 71.3696 27.7524L70.6877 28.4951C70.5411 28.3504 70.3793 28.2247 70.2022 28.118C70.0325 28.0038 69.8592 27.9162 69.6821 27.8553C69.505 27.7943 69.3432 27.7638 69.1966 27.7638C69.0347 27.7638 68.8884 27.7791 68.7574 27.8095C68.6264 27.84 68.5146 27.8857 68.4222 27.9466C68.3375 28.0076 68.2722 28.0838 68.2258 28.1752C68.1797 28.2666 68.1564 28.3694 68.1564 28.4837C68.1642 28.5827 68.1872 28.6779 68.2258 28.7693C68.2722 28.8531 68.3338 28.9255 68.4107 28.9864C68.4956 29.0474 68.6226 29.1121 68.7923 29.1807C68.9616 29.2492 69.1773 29.314 69.4393 29.3749C69.8246 29.4739 70.1405 29.5844 70.387 29.7063C70.6413 29.8205 70.8418 29.9538 70.988 30.1062C71.1421 30.2509 71.2501 30.4185 71.3117 30.6089C71.3734 30.7994 71.4042 31.0126 71.4042 31.2486C71.4042 31.5917 71.304 31.9 71.1038 32.1742C70.9112 32.4409 70.6491 32.6505 70.3176 32.8028C69.9865 32.9551 69.6167 33.0311 69.2084 33.0311Z" fill="#2F57CD"/>
<path d="M58.5497 32.9169L61.682 24.9188H62.9531L66.0624 32.9169H64.7331L62.884 28.0952C62.8607 28.0419 62.8146 27.9124 62.7452 27.7067C62.6836 27.501 62.6105 27.2725 62.5258 27.0211C62.4408 26.7698 62.3639 26.5413 62.2945 26.3356C62.2251 26.1223 62.1788 25.9852 62.1557 25.9242L62.4215 25.9128C62.3755 26.0423 62.3176 26.2061 62.2482 26.4041C62.1865 26.6022 62.1171 26.8117 62.0403 27.0326C61.9709 27.2535 61.9014 27.463 61.832 27.661C61.7629 27.8514 61.7051 28.0114 61.6587 28.1409L59.8211 32.9169H58.5497ZM59.9366 30.9289L60.3991 29.7405H64.0745L64.6061 30.9289H59.9366Z" fill="#2F57CD"/>
<path d="M52.8335 32.9169V26.9183H54.024V32.9169H52.8335ZM53.4114 25.5929C53.1572 25.5929 52.9605 25.5281 52.822 25.3987C52.6831 25.2691 52.6137 25.0863 52.6137 24.8502C52.6137 24.6293 52.6831 24.4503 52.822 24.3132C52.9682 24.1761 53.1646 24.1075 53.4114 24.1075C53.6657 24.1075 53.8621 24.1723 54.0006 24.3018C54.1394 24.4312 54.2088 24.6141 54.2088 24.8502C54.2088 25.0711 54.1357 25.2501 53.9891 25.3872C53.8506 25.5243 53.6579 25.5929 53.4114 25.5929Z" fill="#2F57CD"/>
<path d="M44.0011 32.9169L47.1331 24.9188H48.4045L51.5135 32.9169H50.1845L48.3351 28.0952C48.3121 28.0419 48.2657 27.9124 48.1966 27.7067C48.135 27.501 48.0616 27.2725 47.9769 27.0211C47.8922 26.7698 47.8151 26.5413 47.7457 26.3356C47.6766 26.1223 47.6302 25.9852 47.6072 25.9242L47.8729 25.9128C47.8266 26.0423 47.769 26.2061 47.6996 26.4041C47.638 26.6022 47.5686 26.8117 47.4914 27.0326C47.4223 27.2535 47.3529 27.463 47.2835 27.661C47.2141 27.8514 47.1565 28.0114 47.1101 28.1409L45.2725 32.9169H44.0011ZM45.388 30.9289L45.8502 29.7405H49.5256L50.0572 30.9289H45.388Z" fill="#2F57CD"/>
<path d="M102.49 18.0819C101.772 18.0819 101.131 17.9071 100.565 17.5574C100.009 17.1978 99.5645 16.7133 99.2312 16.1039C98.9078 15.4845 98.7462 14.7753 98.7462 13.9761C98.7462 13.1869 98.9078 12.4826 99.2312 11.8632C99.5545 11.2438 99.994 10.7593 100.55 10.4097C101.116 10.05 101.753 9.87018 102.46 9.87018C102.844 9.87018 103.213 9.93012 103.566 10.05C103.93 10.1699 104.253 10.3347 104.536 10.5445C104.829 10.7443 105.057 10.9691 105.218 11.2188C105.39 11.4686 105.481 11.7283 105.491 11.9981L104.991 12.058V6.84323H106.856V17.9321H105.052L105.006 16.0889L105.37 16.1189C105.36 16.3586 105.274 16.5934 105.112 16.8232C104.95 17.053 104.733 17.2627 104.461 17.4526C104.198 17.6424 103.895 17.7972 103.551 17.9171C103.208 18.027 102.854 18.0819 102.49 18.0819ZM102.839 16.5235C103.273 16.5235 103.657 16.4186 103.991 16.2088C104.324 15.989 104.582 15.6893 104.764 15.3097C104.956 14.9201 105.052 14.4755 105.052 13.9761C105.052 13.4766 104.956 13.037 104.764 12.6574C104.582 12.2778 104.324 11.9781 103.991 11.7583C103.657 11.5385 103.273 11.4286 102.839 11.4286C102.394 11.4286 102.005 11.5385 101.672 11.7583C101.348 11.9781 101.091 12.2778 100.898 12.6574C100.706 13.037 100.611 13.4766 100.611 13.9761C100.611 14.4755 100.706 14.9201 100.898 15.3097C101.091 15.6893 101.348 15.989 101.672 16.2088C102.005 16.4186 102.394 16.5235 102.839 16.5235Z" fill="#2F57CD"/>
<path d="M94.124 18.0819C93.2852 18.0819 92.5426 17.9121 91.8959 17.5724C91.2591 17.2228 90.7589 16.7482 90.3951 16.1489C90.0415 15.5395 89.8647 14.8402 89.8647 14.051C89.8647 13.4316 89.9656 12.8672 90.1679 12.3577C90.3699 11.8482 90.6528 11.4086 91.0166 11.039C91.3805 10.6594 91.81 10.3697 92.3051 10.1699C92.8103 9.96009 93.3559 9.8552 93.942 9.8552C94.4776 9.8552 94.9678 9.95508 95.4122 10.1549C95.867 10.3547 96.2613 10.6294 96.5946 10.979C96.928 11.3187 97.1807 11.7283 97.3525 12.2078C97.5343 12.6774 97.6202 13.1918 97.6102 13.7513L97.595 14.4106H91.138L90.7742 13.1369H96.0338L95.8066 13.3916V13.047C95.7761 12.7473 95.6749 12.4826 95.5034 12.2528C95.3316 12.013 95.1091 11.8282 94.8365 11.6983C94.5738 11.5585 94.2806 11.4886 93.9572 11.4886C93.462 11.4886 93.0428 11.5834 92.6992 11.7733C92.3556 11.9531 92.0929 12.2228 91.9108 12.5824C91.739 12.9421 91.6531 13.3866 91.6531 13.9161C91.6531 14.4256 91.7592 14.8702 91.9715 15.2498C92.1937 15.6294 92.5071 15.9241 92.9114 16.1339C93.3154 16.3437 93.7854 16.4486 94.321 16.4486C94.6948 16.4486 95.0384 16.3886 95.3519 16.2687C95.6749 16.1489 96.0185 15.9341 96.3824 15.6244L97.2918 16.8831C97.0192 17.1329 96.7058 17.3476 96.3522 17.5275C96.0086 17.6973 95.6447 17.8322 95.2607 17.9321C94.8769 18.032 94.4978 18.0819 94.124 18.0819Z" fill="#2F57CD"/>
<path d="M81.1435 17.9321V6.84323H82.9773V11.6534L82.6287 11.8332C82.7398 11.4836 82.9369 11.1639 83.2201 10.8742C83.513 10.5745 83.8615 10.3347 84.2658 10.1549C84.6701 9.96511 85.0894 9.87018 85.5239 9.87018C86.1302 9.87018 86.6356 9.99006 87.0396 10.2298C87.4539 10.4696 87.7623 10.8292 87.9643 11.3087C88.1663 11.7882 88.2675 12.3877 88.2675 13.1069V17.9321H86.4181V13.2418C86.4181 12.8322 86.3627 12.4975 86.2515 12.2378C86.1404 11.9681 85.9686 11.7733 85.7361 11.6534C85.5036 11.5235 85.2207 11.4686 84.8874 11.4886C84.6144 11.4886 84.3617 11.5335 84.1295 11.6234C83.897 11.7034 83.695 11.8232 83.5232 11.9831C83.3614 12.1329 83.23 12.3127 83.1289 12.5225C83.038 12.7223 82.9926 12.9421 82.9926 13.1818V17.9321H82.0679C81.8961 17.9321 81.7296 17.9321 81.5677 17.9321C81.4161 17.9321 81.2748 17.9321 81.1435 17.9321Z" fill="#2F57CD"/>
<path d="M76.469 18.0819C75.7718 18.0819 75.1403 17.967 74.5745 17.7373C74.0186 17.4975 73.5639 17.1579 73.2103 16.7183L74.4077 15.6993C74.7108 16.029 75.0494 16.2738 75.4232 16.4336C75.797 16.5834 76.1911 16.6584 76.6056 16.6584C76.7774 16.6584 76.929 16.6384 77.0604 16.5984C77.2017 16.5585 77.323 16.4985 77.4239 16.4186C77.525 16.3387 77.601 16.2438 77.6514 16.1339C77.7121 16.024 77.7423 15.9041 77.7423 15.7742C77.7423 15.5345 77.6514 15.3447 77.4696 15.2048C77.3685 15.1449 77.2119 15.075 76.9997 14.995C76.7874 14.9051 76.5095 14.8202 76.1659 14.7403C75.6203 14.6004 75.1606 14.4406 74.7868 14.2608C74.4229 14.071 74.14 13.8612 73.9377 13.6314C73.7659 13.4316 73.6395 13.2168 73.5589 12.9871C73.478 12.7473 73.4375 12.4826 73.4375 12.1929C73.4375 11.7433 73.5689 11.3437 73.8316 10.9941C74.1045 10.6444 74.4634 10.3697 74.9078 10.1699C75.3526 9.97009 75.8478 9.87022 76.3934 9.87022C76.7977 9.87022 77.1867 9.92015 77.5605 10.0201C77.9446 10.12 78.2982 10.2648 78.6215 10.4546C78.9449 10.6344 79.2228 10.8542 79.455 11.114L78.4245 12.2378C78.2424 12.058 78.0355 11.8982 77.803 11.7583C77.5807 11.6085 77.3532 11.4936 77.1207 11.4137C76.8886 11.3337 76.6713 11.2938 76.469 11.2938C76.277 11.2938 76.1055 11.3138 75.9539 11.3537C75.802 11.3837 75.676 11.4336 75.5748 11.5036C75.4737 11.5735 75.393 11.6634 75.3324 11.7733C75.2816 11.8732 75.2564 11.9881 75.2564 12.1179C75.2667 12.2478 75.2969 12.3677 75.3473 12.4776C75.408 12.5775 75.4889 12.6624 75.5901 12.7323C75.6909 12.8022 75.8527 12.8822 76.075 12.9721C76.2972 13.062 76.5854 13.1469 76.939 13.2268C77.4342 13.3567 77.8484 13.5015 78.1821 13.6614C78.5154 13.8212 78.7781 14.006 78.9701 14.2158C79.1622 14.3957 79.2985 14.6054 79.3794 14.8452C79.4603 15.085 79.5008 15.3547 79.5008 15.6544C79.5008 16.1239 79.3641 16.5435 79.0915 16.9131C78.8285 17.2727 78.47 17.5575 78.0152 17.7673C77.5605 17.977 77.0451 18.0819 76.469 18.0819Z" fill="#2F57CD"/>
<path d="M67.4216 17.9321V10.035H69.2404L69.2706 12.5525L69.0282 11.9831C69.1393 11.5835 69.3313 11.2238 69.6043 10.9042C69.8769 10.5845 70.1904 10.3347 70.5439 10.1549C70.9078 9.96511 71.2816 9.87022 71.6656 9.87022C71.8374 9.87022 71.9993 9.8852 72.1508 9.91517C72.3124 9.94514 72.4437 9.98009 72.5449 10.0201L72.0597 12.028C71.9386 11.9681 71.797 11.9231 71.6354 11.8932C71.4839 11.8532 71.327 11.8332 71.1655 11.8332C70.9028 11.8332 70.655 11.8832 70.4229 11.9831C70.2003 12.073 70.0033 12.2029 69.8315 12.3727C69.67 12.5425 69.5386 12.7423 69.4375 12.9721C69.3363 13.1918 69.2859 13.4366 69.2859 13.7063V17.9321H67.4216Z" fill="#2F57CD"/>
<path d="M61.6154 18.0819C60.8171 18.0819 60.1046 17.9071 59.4781 17.5575C58.8516 17.1978 58.3564 16.7083 57.9929 16.089C57.639 15.4696 57.4622 14.7653 57.4622 13.9761C57.4622 13.1869 57.639 12.4826 57.9929 11.8632C58.3564 11.2438 58.8516 10.7593 59.4781 10.4097C60.1046 10.05 60.8171 9.87022 61.6154 9.87022C62.4038 9.87022 63.1109 10.05 63.7374 10.4097C64.3639 10.7593 64.8542 11.2438 65.2077 11.8632C65.5716 12.4826 65.7533 13.1869 65.7533 13.9761C65.7533 14.7653 65.5716 15.4696 65.2077 16.089C64.8542 16.7083 64.3639 17.1978 63.7374 17.5575C63.1109 17.9071 62.4038 18.0819 61.6154 18.0819ZM61.6154 16.4486C62.0499 16.4486 62.4389 16.3437 62.7825 16.1339C63.1262 15.9141 63.3938 15.6194 63.5859 15.2498C63.7882 14.8702 63.884 14.4456 63.8737 13.9761C63.884 13.4966 63.7882 13.072 63.5859 12.7024C63.3938 12.3227 63.1262 12.028 62.7825 11.8182C62.4389 11.6085 62.0499 11.5036 61.6154 11.5036C61.1809 11.5036 60.7869 11.6134 60.433 11.8332C60.0894 12.043 59.8217 12.3377 59.6297 12.7174C59.4377 13.087 59.3418 13.5066 59.3418 13.9761C59.3418 14.4456 59.4377 14.8702 59.6297 15.2498C59.8217 15.6194 60.0894 15.9141 60.433 16.1339C60.7869 16.3437 61.1809 16.4486 61.6154 16.4486Z" fill="#2F57CD"/>
<path d="M45.1368 17.9321V7.44262H46.9862L50.8515 13.6464L49.7902 13.6314L53.686 7.44262H55.4441V17.9321H53.5191V14.006C53.5191 13.0969 53.5394 12.2827 53.5798 11.5635C53.6302 10.8342 53.7112 10.1149 53.8223 9.40563L54.0647 10.035L50.7756 15.0699H49.76L46.5617 10.095L46.774 9.40563C46.8851 10.075 46.961 10.7643 47.0012 11.4735C47.0519 12.1828 47.0771 13.027 47.0771 14.006V17.9321H45.1368Z" fill="#2F57CD"/>
<path d="M21.1926 21.7902L22.2536 19.4825L24.5879 18.4336L22.2536 17.3846L21.1926 15.0769L20.1315 17.3846L17.7972 18.4336L20.1315 19.4825L21.1926 21.7902ZM14.8263 22.2098L12.7042 17.5944L10.5821 22.2098L5.91354 24.3077L10.5821 26.4056L12.7042 31.0209L14.8263 26.4056L19.4949 24.3077L14.8263 22.2098ZM21.1926 26.8252L20.1315 29.1329L17.7972 30.1818L20.1315 31.2308L21.1926 33.5385L22.2536 31.2308L24.5879 30.1818L22.2536 29.1329L21.1926 26.8252Z" fill="#2F57CD"/>
</g>
<defs>
<clipPath id="clip0_7_1045">
<rect width="108" height="40" fill="white"/>
</clipPath>
</defs>
</svg>
