<svg width="18" height="18" viewBox="0 0 18 18" fill="none" xmlns="http://www.w3.org/2000/svg">
<path d="M5.33249 6.3975L4.27499 5.3325C3.59999 6.2025 3.17999 7.2075 3.05249 8.25H4.56749C4.67249 7.5975 4.93499 6.96 5.33249 6.3975ZM4.56749 9.75H3.05249C3.17999 10.7925 3.59249 11.7975 4.26749 12.6675L5.32499 11.6025C4.93499 11.04 4.67249 10.41 4.56749 9.75ZM5.32499 13.74C6.19499 14.415 7.20749 14.82 8.24999 14.9475V13.425C7.59749 13.3125 6.96749 13.0575 6.40499 12.6525L5.32499 13.74ZM9.74999 3.0525V0.75L6.33749 4.1625L9.74999 7.5V4.5675C11.88 4.9275 13.5 6.7725 13.5 9C13.5 11.2275 11.88 13.0725 9.74999 13.4325V14.9475C12.7125 14.58 15 12.06 15 9C15 5.94 12.7125 3.42 9.74999 3.0525Z" fill="#132459"/>
</svg>
